<svg width="66" height="66" viewBox="0 0 66 66" fill="none" xmlns="http://www.w3.org/2000/svg">
<rect width="66" height="66" fill="white"/>
<path d="M14.8642 29.9053C16.524 30.0864 17.8519 30.3806 18.8478 30.788C19.8588 31.1954 20.5906 31.7311 21.0433 32.395C21.4959 33.059 21.7223 33.8889 21.7223 34.8848C21.7223 35.9712 21.3677 36.9218 20.6585 37.7366C19.9644 38.5363 18.9987 39.155 17.7614 39.5926C16.524 40.0151 15.1132 40.2263 13.5288 40.2263C11.7634 40.2263 10.2696 40.0075 9.04734 39.57C7.82511 39.1324 6.91222 38.5514 6.30865 37.8272C5.70508 37.0878 5.4033 36.2805 5.4033 35.4053C5.4033 35.2544 5.44856 35.1337 5.5391 35.0432C5.64472 34.9527 5.77298 34.9074 5.92387 34.9074H10.5638C10.8807 34.9074 11.1372 35.0055 11.3334 35.2016C11.5899 35.4431 11.8766 35.609 12.1934 35.6996C12.5103 35.775 12.9554 35.8127 13.5288 35.8127C14.9623 35.8127 15.679 35.594 15.679 35.1564C15.679 34.9753 15.581 34.8244 15.3848 34.7037C15.2037 34.5679 14.8718 34.4547 14.3889 34.3642C13.9212 34.2586 13.2271 34.1529 12.3066 34.0473C10.2394 33.8059 8.65502 33.2928 7.55351 32.5082C6.452 31.7085 5.90124 30.5843 5.90124 29.1358C5.90124 28.1097 6.21057 27.2043 6.82923 26.4197C7.44788 25.6351 8.32306 25.024 9.45475 24.5864C10.6015 24.1488 11.9294 23.93 13.4383 23.93C15.0076 23.93 16.3807 24.179 17.5577 24.6769C18.7346 25.1598 19.6324 25.7633 20.2511 26.4876C20.8697 27.2119 21.1791 27.9211 21.1791 28.6152C21.1791 28.7661 21.1263 28.8868 21.0206 28.9773C20.9301 29.0679 20.8018 29.1131 20.6359 29.1131H15.7696C15.5131 29.1131 15.2792 29.0226 15.0679 28.8415C14.902 28.6906 14.7058 28.5699 14.4795 28.4794C14.2531 28.3889 13.9061 28.3436 13.4383 28.3436C12.4273 28.3436 11.9218 28.5548 11.9218 28.9773C11.9218 29.2037 12.118 29.3847 12.5103 29.5205C12.9026 29.6413 13.6873 29.7695 14.8642 29.9053ZM30.8575 39.3889C30.8122 39.5247 30.6991 39.6605 30.518 39.7963C30.352 39.9321 30.1332 40 29.8616 40H26.6929C26.4062 40 26.1648 39.917 25.9686 39.751C25.7875 39.57 25.6819 39.3663 25.6517 39.1399L23.6826 24.7222V24.6543C23.6826 24.5185 23.7278 24.4053 23.8184 24.3148C23.924 24.2091 24.0447 24.1563 24.1805 24.1563H28.0735C28.3753 24.1563 28.6167 24.2469 28.7978 24.4279C28.994 24.609 29.1071 24.8353 29.1373 25.1069L29.8616 32.0329L31.1744 28.4341C31.2196 28.2832 31.3253 28.1399 31.4912 28.0041C31.6723 27.8532 31.8987 27.7777 32.1703 27.7777H33.7094C33.981 27.7777 34.1998 27.8532 34.3657 28.0041C34.5468 28.1399 34.66 28.2832 34.7052 28.4341L36.018 32.0329L36.7423 25.1069C36.7725 24.8353 36.8781 24.609 37.0592 24.4279C37.2553 24.2469 37.5043 24.1563 37.8061 24.1563H41.6991C41.8349 24.1563 41.9481 24.2091 42.0386 24.3148C42.1442 24.4053 42.197 24.5185 42.197 24.6543V24.7222L40.2279 39.1399C40.1977 39.3663 40.0845 39.57 39.8884 39.751C39.7073 39.917 39.4734 40 39.1867 40H36.018C35.7464 40 35.5201 39.9321 35.339 39.7963C35.173 39.6605 35.0674 39.5247 35.0221 39.3889L32.9398 34.6132L30.8575 39.3889ZM53.324 29.9053C54.9838 30.0864 56.3117 30.3806 57.3076 30.788C58.3186 31.1954 59.0504 31.7311 59.5031 32.395C59.9557 33.059 60.1821 33.8889 60.1821 34.8848C60.1821 35.9712 59.8275 36.9218 59.1183 37.7366C58.4242 38.5363 57.4585 39.155 56.2212 39.5926C54.9838 40.0151 53.573 40.2263 51.9886 40.2263C50.2232 40.2263 48.7294 40.0075 47.5071 39.57C46.2849 39.1324 45.372 38.5514 44.7684 37.8272C44.1649 37.0878 43.8631 36.2805 43.8631 35.4053C43.8631 35.2544 43.9084 35.1337 43.9989 35.0432C44.1045 34.9527 44.2328 34.9074 44.3837 34.9074H49.0236C49.3405 34.9074 49.597 35.0055 49.7932 35.2016C50.0497 35.4431 50.3364 35.609 50.6532 35.6996C50.9701 35.775 51.4152 35.8127 51.9886 35.8127C53.4221 35.8127 54.1388 35.594 54.1388 35.1564C54.1388 34.9753 54.0408 34.8244 53.8446 34.7037C53.6635 34.5679 53.3316 34.4547 52.8487 34.3642C52.381 34.2586 51.6869 34.1529 50.7664 34.0473C48.6992 33.8059 47.1148 33.2928 46.0133 32.5082C44.9118 31.7085 44.361 30.5843 44.361 29.1358C44.361 28.1097 44.6704 27.2043 45.289 26.4197C45.9077 25.6351 46.7829 25.024 47.9146 24.5864C49.0613 24.1488 50.3892 23.93 51.8981 23.93C53.4674 23.93 54.8405 24.179 56.0175 24.6769C57.1944 25.1598 58.0922 25.7633 58.7109 26.4876C59.3295 27.2119 59.6389 27.9211 59.6389 28.6152C59.6389 28.7661 59.5861 28.8868 59.4804 28.9773C59.3899 29.0679 59.2616 29.1131 59.0957 29.1131H54.2294C53.9729 29.1131 53.739 29.0226 53.5277 28.8415C53.3618 28.6906 53.1656 28.5699 52.9393 28.4794C52.7129 28.3889 52.3659 28.3436 51.8981 28.3436C50.8871 28.3436 50.3816 28.5548 50.3816 28.9773C50.3816 29.2037 50.5778 29.3847 50.9701 29.5205C51.3624 29.6413 52.1471 29.7695 53.324 29.9053Z" fill="black"/>
</svg>
